# xmcd
#
# Track frame offsets: 
#        150
#        11226
#        28084
#        40847
#        53287
#        65190
#        77652
#        88540
#        100704
#        116525
#        134269
#        146380
#        157292
#
# Disc length: 2357 seconds
#
# Revision: 1
# Processed by: cddbd v1.5.1PL0 Copyright (c) Steve Scherf et al.
# Submitted via: ExactAudioCopy v0.90b4
#
DISCID=a809330d
DTITLE=Bill Anderson - Oh Boy Classics
DYEAR=1900
DGENRE=Country
TTITLE0=I Get the fever
TTITLE1=the Corner of my life
TTITLE2=still
TTITLE3=I love you drops
TTITLE4=three AM
TTITLE5=Po'Folks
TTITLE6=Quits
TTITLE7=Tips of My Fingers
TTITLE8=Mama Sang a Song
TTITLE9=Christmas in Your Arms
TTITLE10=Bright Lights and Country Music
TTITLE11=Wild Weekend
TTITLE12=Golden Guitar
EXTD=
EXTT0=
EXTT1=
EXTT2=
EXTT3=
EXTT4=
EXTT5=
EXTT6=
EXTT7=
EXTT8=
EXTT9=
EXTT10=
EXTT11=
EXTT12=
PLAYORDER=
